<mxfile host="app.diagrams.net" modified="2021-06-04T06:20:07.992Z" agent="5.0 (X11; Linux x86_64) AppleWebKit/537.36 (KHTML, like Gecko) Chrome/91.0.4472.77 Safari/537.36" etag="rye6G7MTlg74TOjC0wxy" version="14.7.5" type="github">
  <diagram id="prtHgNgQTEPvFCAcTncT" name="Page-1">
    <mxGraphModel dx="1348" dy="717" grid="1" gridSize="10" guides="1" tooltips="1" connect="1" arrows="1" fold="1" page="1" pageScale="1" pageWidth="827" pageHeight="1169" math="0" shadow="0">
      <root>
        <mxCell id="0" />
        <mxCell id="1" parent="0" />
        <mxCell id="9zgFtrAu__IKfE8OlP4N-2" value="Pool" style="swimlane;html=1;childLayout=stackLayout;resizeParent=1;resizeParentMax=0;horizontal=1;startSize=20;horizontalStack=0;" vertex="1" parent="1">
          <mxGeometry x="10" y="100" width="2090" height="830" as="geometry" />
        </mxCell>
        <mxCell id="9zgFtrAu__IKfE8OlP4N-3" value="Lane 1" style="swimlane;html=1;startSize=20;horizontal=0;" vertex="1" parent="9zgFtrAu__IKfE8OlP4N-2">
          <mxGeometry y="20" width="2090" height="250" as="geometry" />
        </mxCell>
        <mxCell id="9zgFtrAu__IKfE8OlP4N-6" value="用户" style="ellipse;whiteSpace=wrap;html=1;aspect=fixed;" vertex="1" parent="9zgFtrAu__IKfE8OlP4N-3">
          <mxGeometry x="30" y="30" width="50" height="50" as="geometry" />
        </mxCell>
        <mxCell id="9zgFtrAu__IKfE8OlP4N-7" value="选择交易对开启robot" style="rounded=0;whiteSpace=wrap;html=1;" vertex="1" parent="9zgFtrAu__IKfE8OlP4N-3">
          <mxGeometry x="110" y="40" width="100" height="30" as="geometry" />
        </mxCell>
        <mxCell id="9zgFtrAu__IKfE8OlP4N-8" value="" style="endArrow=classic;html=1;exitX=1;exitY=0.5;exitDx=0;exitDy=0;entryX=0;entryY=0.5;entryDx=0;entryDy=0;" edge="1" parent="9zgFtrAu__IKfE8OlP4N-3" source="9zgFtrAu__IKfE8OlP4N-6" target="9zgFtrAu__IKfE8OlP4N-7">
          <mxGeometry width="50" height="50" relative="1" as="geometry">
            <mxPoint x="210" y="30" as="sourcePoint" />
            <mxPoint x="260" y="-20" as="targetPoint" />
          </mxGeometry>
        </mxCell>
        <mxCell id="9zgFtrAu__IKfE8OlP4N-9" value="&lt;font style=&quot;font-size: 11px&quot;&gt;是否免费&lt;/font&gt;" style="rhombus;whiteSpace=wrap;html=1;" vertex="1" parent="9zgFtrAu__IKfE8OlP4N-3">
          <mxGeometry x="120" y="85" width="80" height="25" as="geometry" />
        </mxCell>
        <mxCell id="9zgFtrAu__IKfE8OlP4N-10" value="" style="endArrow=classic;html=1;exitX=0.5;exitY=1;exitDx=0;exitDy=0;entryX=0.5;entryY=0;entryDx=0;entryDy=0;" edge="1" parent="9zgFtrAu__IKfE8OlP4N-3" source="9zgFtrAu__IKfE8OlP4N-7" target="9zgFtrAu__IKfE8OlP4N-9">
          <mxGeometry width="50" height="50" relative="1" as="geometry">
            <mxPoint x="350" y="180" as="sourcePoint" />
            <mxPoint x="400" y="130" as="targetPoint" />
          </mxGeometry>
        </mxCell>
        <mxCell id="9zgFtrAu__IKfE8OlP4N-11" value="开启机器人" style="rounded=0;whiteSpace=wrap;html=1;" vertex="1" parent="9zgFtrAu__IKfE8OlP4N-3">
          <mxGeometry x="115" y="150" width="90" height="20" as="geometry" />
        </mxCell>
        <mxCell id="9zgFtrAu__IKfE8OlP4N-12" value="" style="endArrow=classic;html=1;exitX=0.5;exitY=1;exitDx=0;exitDy=0;entryX=0.5;entryY=0;entryDx=0;entryDy=0;" edge="1" parent="9zgFtrAu__IKfE8OlP4N-3" source="9zgFtrAu__IKfE8OlP4N-9" target="9zgFtrAu__IKfE8OlP4N-11">
          <mxGeometry width="50" height="50" relative="1" as="geometry">
            <mxPoint x="350" y="180" as="sourcePoint" />
            <mxPoint x="400" y="130" as="targetPoint" />
          </mxGeometry>
        </mxCell>
        <mxCell id="9zgFtrAu__IKfE8OlP4N-13" value="yes" style="edgeLabel;html=1;align=center;verticalAlign=middle;resizable=0;points=[];" vertex="1" connectable="0" parent="9zgFtrAu__IKfE8OlP4N-12">
          <mxGeometry x="-0.5165" y="-1" relative="1" as="geometry">
            <mxPoint as="offset" />
          </mxGeometry>
        </mxCell>
        <mxCell id="9zgFtrAu__IKfE8OlP4N-17" value="" style="endArrow=classic;html=1;exitX=1;exitY=0.5;exitDx=0;exitDy=0;entryX=0;entryY=0.5;entryDx=0;entryDy=0;" edge="1" parent="9zgFtrAu__IKfE8OlP4N-3" source="9zgFtrAu__IKfE8OlP4N-9">
          <mxGeometry width="50" height="50" relative="1" as="geometry">
            <mxPoint x="210" y="100" as="sourcePoint" />
            <mxPoint x="240" y="96.25" as="targetPoint" />
          </mxGeometry>
        </mxCell>
        <mxCell id="9zgFtrAu__IKfE8OlP4N-21" value="no" style="edgeLabel;html=1;align=center;verticalAlign=middle;resizable=0;points=[];" vertex="1" connectable="0" parent="9zgFtrAu__IKfE8OlP4N-17">
          <mxGeometry x="-0.4298" y="3" relative="1" as="geometry">
            <mxPoint as="offset" />
          </mxGeometry>
        </mxCell>
        <mxCell id="9zgFtrAu__IKfE8OlP4N-22" value="可用余额１０ｕ" style="rhombus;whiteSpace=wrap;html=1;" vertex="1" parent="9zgFtrAu__IKfE8OlP4N-3">
          <mxGeometry x="240" y="82.5" width="80" height="30" as="geometry" />
        </mxCell>
        <mxCell id="9zgFtrAu__IKfE8OlP4N-23" value="" style="endArrow=classic;html=1;exitX=0.5;exitY=1;exitDx=0;exitDy=0;entryX=1;entryY=0.5;entryDx=0;entryDy=0;" edge="1" parent="9zgFtrAu__IKfE8OlP4N-3" source="9zgFtrAu__IKfE8OlP4N-22" target="9zgFtrAu__IKfE8OlP4N-11">
          <mxGeometry width="50" height="50" relative="1" as="geometry">
            <mxPoint x="350" y="160" as="sourcePoint" />
            <mxPoint x="400" y="110" as="targetPoint" />
            <Array as="points">
              <mxPoint x="280" y="160" />
            </Array>
          </mxGeometry>
        </mxCell>
        <mxCell id="9zgFtrAu__IKfE8OlP4N-24" value="yes" style="edgeLabel;html=1;align=center;verticalAlign=middle;resizable=0;points=[];" vertex="1" connectable="0" parent="9zgFtrAu__IKfE8OlP4N-23">
          <mxGeometry x="0.0945" y="-1" relative="1" as="geometry">
            <mxPoint as="offset" />
          </mxGeometry>
        </mxCell>
        <mxCell id="9zgFtrAu__IKfE8OlP4N-25" value="" style="endArrow=classic;html=1;exitX=1;exitY=0.5;exitDx=0;exitDy=0;entryX=0.5;entryY=0;entryDx=0;entryDy=0;" edge="1" parent="9zgFtrAu__IKfE8OlP4N-3" source="9zgFtrAu__IKfE8OlP4N-7" target="9zgFtrAu__IKfE8OlP4N-22">
          <mxGeometry width="50" height="50" relative="1" as="geometry">
            <mxPoint x="350" y="160" as="sourcePoint" />
            <mxPoint x="400" y="110" as="targetPoint" />
            <Array as="points">
              <mxPoint x="280" y="55" />
            </Array>
          </mxGeometry>
        </mxCell>
        <mxCell id="9zgFtrAu__IKfE8OlP4N-27" value="" style="endArrow=classic;html=1;exitX=0.5;exitY=1;exitDx=0;exitDy=0;entryX=0.5;entryY=0;entryDx=0;entryDy=0;" edge="1" parent="9zgFtrAu__IKfE8OlP4N-2" source="9zgFtrAu__IKfE8OlP4N-11" target="9zgFtrAu__IKfE8OlP4N-26">
          <mxGeometry width="50" height="50" relative="1" as="geometry">
            <mxPoint x="350" y="350" as="sourcePoint" />
            <mxPoint x="400" y="300" as="targetPoint" />
          </mxGeometry>
        </mxCell>
        <mxCell id="9zgFtrAu__IKfE8OlP4N-4" value="consol" style="swimlane;html=1;startSize=20;horizontal=0;" vertex="1" parent="9zgFtrAu__IKfE8OlP4N-2">
          <mxGeometry y="270" width="2090" height="300" as="geometry" />
        </mxCell>
        <mxCell id="9zgFtrAu__IKfE8OlP4N-26" value="扫描开启的机器人" style="rounded=0;whiteSpace=wrap;html=1;" vertex="1" parent="9zgFtrAu__IKfE8OlP4N-4">
          <mxGeometry x="110" y="20" width="100" height="20" as="geometry" />
        </mxCell>
        <mxCell id="9zgFtrAu__IKfE8OlP4N-35" value="消费Robot Queue" style="rounded=0;whiteSpace=wrap;html=1;" vertex="1" parent="9zgFtrAu__IKfE8OlP4N-4">
          <mxGeometry x="290" y="20" width="120" height="20" as="geometry" />
        </mxCell>
        <mxCell id="9zgFtrAu__IKfE8OlP4N-37" value="是否免费" style="rhombus;whiteSpace=wrap;html=1;" vertex="1" parent="9zgFtrAu__IKfE8OlP4N-4">
          <mxGeometry x="310" y="70" width="80" height="30" as="geometry" />
        </mxCell>
        <mxCell id="9zgFtrAu__IKfE8OlP4N-53" value="检查余额" style="rhombus;whiteSpace=wrap;html=1;" vertex="1" parent="9zgFtrAu__IKfE8OlP4N-4">
          <mxGeometry x="310" y="120" width="80" height="30" as="geometry" />
        </mxCell>
        <mxCell id="9zgFtrAu__IKfE8OlP4N-54" value="" style="endArrow=classic;html=1;exitX=0.5;exitY=1;exitDx=0;exitDy=0;" edge="1" parent="9zgFtrAu__IKfE8OlP4N-4" source="9zgFtrAu__IKfE8OlP4N-37" target="9zgFtrAu__IKfE8OlP4N-53">
          <mxGeometry width="50" height="50" relative="1" as="geometry">
            <mxPoint x="340" y="110" as="sourcePoint" />
            <mxPoint x="370" y="170" as="targetPoint" />
          </mxGeometry>
        </mxCell>
        <mxCell id="9zgFtrAu__IKfE8OlP4N-56" value="n" style="edgeLabel;html=1;align=center;verticalAlign=middle;resizable=0;points=[];" vertex="1" connectable="0" parent="9zgFtrAu__IKfE8OlP4N-54">
          <mxGeometry x="-0.6769" relative="1" as="geometry">
            <mxPoint as="offset" />
          </mxGeometry>
        </mxCell>
        <mxCell id="9zgFtrAu__IKfE8OlP4N-57" value="交易所余额" style="rounded=0;whiteSpace=wrap;html=1;" vertex="1" parent="9zgFtrAu__IKfE8OlP4N-4">
          <mxGeometry x="290" y="180" width="120" height="30" as="geometry" />
        </mxCell>
        <mxCell id="9zgFtrAu__IKfE8OlP4N-58" value="" style="endArrow=classic;html=1;entryX=0.5;entryY=0;entryDx=0;entryDy=0;exitX=0.5;exitY=1;exitDx=0;exitDy=0;" edge="1" parent="9zgFtrAu__IKfE8OlP4N-4" source="9zgFtrAu__IKfE8OlP4N-53" target="9zgFtrAu__IKfE8OlP4N-57">
          <mxGeometry width="50" height="50" relative="1" as="geometry">
            <mxPoint x="450" y="230" as="sourcePoint" />
            <mxPoint x="500" y="180" as="targetPoint" />
          </mxGeometry>
        </mxCell>
        <mxCell id="9zgFtrAu__IKfE8OlP4N-61" value="调用交易所api买入" style="rounded=0;whiteSpace=wrap;html=1;" vertex="1" parent="9zgFtrAu__IKfE8OlP4N-4">
          <mxGeometry x="290" y="250" width="120" height="30" as="geometry" />
        </mxCell>
        <mxCell id="9zgFtrAu__IKfE8OlP4N-62" value="" style="shape=waypoint;size=6;pointerEvents=1;points=[];fillColor=#ffffff;resizable=0;rotatable=0;perimeter=centerPerimeter;snapToPoint=1;rounded=0;" vertex="1" parent="9zgFtrAu__IKfE8OlP4N-4">
          <mxGeometry x="330" y="230" width="40" height="40" as="geometry" />
        </mxCell>
        <mxCell id="9zgFtrAu__IKfE8OlP4N-63" value="" style="edgeStyle=orthogonalEdgeStyle;rounded=0;orthogonalLoop=1;jettySize=auto;html=1;" edge="1" parent="9zgFtrAu__IKfE8OlP4N-4" source="9zgFtrAu__IKfE8OlP4N-57" target="9zgFtrAu__IKfE8OlP4N-62">
          <mxGeometry relative="1" as="geometry" />
        </mxCell>
        <mxCell id="9zgFtrAu__IKfE8OlP4N-70" value="&lt;span style=&quot;font-size: 11px&quot;&gt;SyncHuobiOrderJob:&lt;/span&gt;&lt;span style=&quot;font-size: 11px&quot;&gt;sync-orders queue&lt;/span&gt;" style="rounded=0;whiteSpace=wrap;html=1;" vertex="1" parent="9zgFtrAu__IKfE8OlP4N-4">
          <mxGeometry x="490" y="20" width="120" height="30" as="geometry" />
        </mxCell>
        <mxCell id="9zgFtrAu__IKfE8OlP4N-71" value="查询交易所订单详情" style="rounded=0;whiteSpace=wrap;html=1;" vertex="1" parent="9zgFtrAu__IKfE8OlP4N-4">
          <mxGeometry x="490" y="80" width="120" height="30" as="geometry" />
        </mxCell>
        <mxCell id="9zgFtrAu__IKfE8OlP4N-73" value="" style="endArrow=classic;html=1;exitX=0.5;exitY=1;exitDx=0;exitDy=0;entryX=0.5;entryY=0;entryDx=0;entryDy=0;" edge="1" parent="9zgFtrAu__IKfE8OlP4N-4" source="9zgFtrAu__IKfE8OlP4N-70" target="9zgFtrAu__IKfE8OlP4N-71">
          <mxGeometry width="50" height="50" relative="1" as="geometry">
            <mxPoint x="660" y="160" as="sourcePoint" />
            <mxPoint x="710" y="110" as="targetPoint" />
          </mxGeometry>
        </mxCell>
        <mxCell id="9zgFtrAu__IKfE8OlP4N-74" value="" style="endArrow=classic;html=1;exitX=0.5;exitY=1;exitDx=0;exitDy=0;entryX=0.5;entryY=0;entryDx=0;entryDy=0;" edge="1" parent="9zgFtrAu__IKfE8OlP4N-4" source="9zgFtrAu__IKfE8OlP4N-71">
          <mxGeometry width="50" height="50" relative="1" as="geometry">
            <mxPoint x="690" y="210" as="sourcePoint" />
            <mxPoint x="550" y="130" as="targetPoint" />
          </mxGeometry>
        </mxCell>
        <mxCell id="9zgFtrAu__IKfE8OlP4N-77" value="生成订单数据" style="rounded=0;whiteSpace=wrap;html=1;" vertex="1" parent="9zgFtrAu__IKfE8OlP4N-4">
          <mxGeometry x="490" y="220" width="120" height="30" as="geometry" />
        </mxCell>
        <mxCell id="9zgFtrAu__IKfE8OlP4N-80" value="关闭robot" style="rounded=0;whiteSpace=wrap;html=1;" vertex="1" parent="9zgFtrAu__IKfE8OlP4N-4">
          <mxGeometry x="650" y="125" width="90" height="20" as="geometry" />
        </mxCell>
        <mxCell id="9zgFtrAu__IKfE8OlP4N-81" value="交易状态" style="rhombus;whiteSpace=wrap;html=1;" vertex="1" parent="9zgFtrAu__IKfE8OlP4N-4">
          <mxGeometry x="510" y="120" width="80" height="30" as="geometry" />
        </mxCell>
        <mxCell id="9zgFtrAu__IKfE8OlP4N-82" value="" style="endArrow=classic;html=1;exitX=1;exitY=0.5;exitDx=0;exitDy=0;" edge="1" parent="9zgFtrAu__IKfE8OlP4N-4" source="9zgFtrAu__IKfE8OlP4N-81">
          <mxGeometry width="50" height="50" relative="1" as="geometry">
            <mxPoint x="600" y="215" as="sourcePoint" />
            <mxPoint x="650" y="135" as="targetPoint" />
          </mxGeometry>
        </mxCell>
        <mxCell id="9zgFtrAu__IKfE8OlP4N-85" value="faild" style="edgeLabel;html=1;align=center;verticalAlign=middle;resizable=0;points=[];" vertex="1" connectable="0" parent="9zgFtrAu__IKfE8OlP4N-82">
          <mxGeometry x="-0.2786" y="-1" relative="1" as="geometry">
            <mxPoint as="offset" />
          </mxGeometry>
        </mxCell>
        <mxCell id="9zgFtrAu__IKfE8OlP4N-92" value="" style="endArrow=classic;html=1;entryX=0.5;entryY=0;entryDx=0;entryDy=0;exitX=0.5;exitY=1;exitDx=0;exitDy=0;" edge="1" parent="9zgFtrAu__IKfE8OlP4N-4" source="9zgFtrAu__IKfE8OlP4N-81" target="9zgFtrAu__IKfE8OlP4N-77">
          <mxGeometry width="50" height="50" relative="1" as="geometry">
            <mxPoint x="250" y="200" as="sourcePoint" />
            <mxPoint x="300" y="150" as="targetPoint" />
          </mxGeometry>
        </mxCell>
        <mxCell id="9zgFtrAu__IKfE8OlP4N-93" value="success" style="edgeLabel;html=1;align=center;verticalAlign=middle;resizable=0;points=[];" vertex="1" connectable="0" parent="9zgFtrAu__IKfE8OlP4N-92">
          <mxGeometry x="-0.3166" y="-1" relative="1" as="geometry">
            <mxPoint as="offset" />
          </mxGeometry>
        </mxCell>
        <mxCell id="9zgFtrAu__IKfE8OlP4N-102" value="SettleHuoBiOrder/处理订单" style="rounded=0;whiteSpace=wrap;html=1;" vertex="1" parent="9zgFtrAu__IKfE8OlP4N-4">
          <mxGeometry x="790" y="20" width="120" height="30" as="geometry" />
        </mxCell>
        <mxCell id="9zgFtrAu__IKfE8OlP4N-103" value="查询所有交易对＆交易对最新价格" style="rounded=0;whiteSpace=wrap;html=1;" vertex="1" parent="9zgFtrAu__IKfE8OlP4N-4">
          <mxGeometry x="790" y="190" width="120" height="60" as="geometry" />
        </mxCell>
        <mxCell id="9zgFtrAu__IKfE8OlP4N-106" value="" style="endArrow=classic;html=1;exitX=0.5;exitY=1;exitDx=0;exitDy=0;" edge="1" parent="9zgFtrAu__IKfE8OlP4N-4" source="9zgFtrAu__IKfE8OlP4N-102" target="9zgFtrAu__IKfE8OlP4N-103">
          <mxGeometry width="50" height="50" relative="1" as="geometry">
            <mxPoint x="580" y="250" as="sourcePoint" />
            <mxPoint x="630" y="200" as="targetPoint" />
          </mxGeometry>
        </mxCell>
        <mxCell id="9zgFtrAu__IKfE8OlP4N-38" value="" style="endArrow=classic;html=1;exitX=0.5;exitY=1;exitDx=0;exitDy=0;" edge="1" parent="9zgFtrAu__IKfE8OlP4N-4" source="9zgFtrAu__IKfE8OlP4N-35" target="9zgFtrAu__IKfE8OlP4N-37">
          <mxGeometry width="50" height="50" relative="1" as="geometry">
            <mxPoint x="-210" y="150" as="sourcePoint" />
            <mxPoint x="-140" y="50" as="targetPoint" />
          </mxGeometry>
        </mxCell>
        <mxCell id="9zgFtrAu__IKfE8OlP4N-118" value="CreateSellOrderJob：queue" style="rounded=0;whiteSpace=wrap;html=1;" vertex="1" parent="9zgFtrAu__IKfE8OlP4N-4">
          <mxGeometry x="1090" y="150" width="120" height="30" as="geometry" />
        </mxCell>
        <mxCell id="9zgFtrAu__IKfE8OlP4N-119" value="查询redis当前交易对订单价格大于当前价格订单丢入队列，删除redis 订单" style="rounded=0;whiteSpace=wrap;html=1;" vertex="1" parent="9zgFtrAu__IKfE8OlP4N-4">
          <mxGeometry x="1090" y="230" width="120" height="60" as="geometry" />
        </mxCell>
        <mxCell id="9zgFtrAu__IKfE8OlP4N-121" value="" style="endArrow=classic;html=1;entryX=0.5;entryY=0;entryDx=0;entryDy=0;exitX=0.5;exitY=1;exitDx=0;exitDy=0;" edge="1" parent="9zgFtrAu__IKfE8OlP4N-4" source="9zgFtrAu__IKfE8OlP4N-118" target="9zgFtrAu__IKfE8OlP4N-119">
          <mxGeometry width="50" height="50" relative="1" as="geometry">
            <mxPoint x="830" y="190" as="sourcePoint" />
            <mxPoint x="880" y="140" as="targetPoint" />
          </mxGeometry>
        </mxCell>
        <mxCell id="9zgFtrAu__IKfE8OlP4N-124" value="&lt;font style=&quot;font-size: 11px&quot;&gt;CreateBuyOrderJob:queue&lt;/font&gt;" style="rounded=0;whiteSpace=wrap;html=1;" vertex="1" parent="9zgFtrAu__IKfE8OlP4N-4">
          <mxGeometry x="1250" y="150" width="120" height="30" as="geometry" />
        </mxCell>
        <mxCell id="9zgFtrAu__IKfE8OlP4N-125" value="查询redis当前交易对订单价格小于当前价格订单丢入队列，删除redis 订单" style="rounded=0;whiteSpace=wrap;html=1;" vertex="1" parent="9zgFtrAu__IKfE8OlP4N-4">
          <mxGeometry x="1250" y="230" width="120" height="60" as="geometry" />
        </mxCell>
        <mxCell id="9zgFtrAu__IKfE8OlP4N-128" value="" style="endArrow=classic;html=1;entryX=0.5;entryY=0;entryDx=0;entryDy=0;exitX=0.5;exitY=1;exitDx=0;exitDy=0;" edge="1" parent="9zgFtrAu__IKfE8OlP4N-4">
          <mxGeometry width="50" height="50" relative="1" as="geometry">
            <mxPoint x="1309.58" y="180" as="sourcePoint" />
            <mxPoint x="1309.58" y="230" as="targetPoint" />
          </mxGeometry>
        </mxCell>
        <mxCell id="9zgFtrAu__IKfE8OlP4N-132" value="&lt;font style=&quot;font-size: 11px&quot;&gt;SellOrderJob:queue&lt;/font&gt;" style="rounded=0;whiteSpace=wrap;html=1;" vertex="1" parent="9zgFtrAu__IKfE8OlP4N-4">
          <mxGeometry x="1500" y="30" width="120" height="30" as="geometry" />
        </mxCell>
        <mxCell id="9zgFtrAu__IKfE8OlP4N-134" value="交易所api执行卖出" style="rounded=0;whiteSpace=wrap;html=1;" vertex="1" parent="9zgFtrAu__IKfE8OlP4N-4">
          <mxGeometry x="1500" y="220" width="120" height="60" as="geometry" />
        </mxCell>
        <mxCell id="9zgFtrAu__IKfE8OlP4N-135" value="交易所api执行买入出" style="rounded=0;whiteSpace=wrap;html=1;" vertex="1" parent="9zgFtrAu__IKfE8OlP4N-4">
          <mxGeometry x="1790" y="220" width="120" height="60" as="geometry" />
        </mxCell>
        <mxCell id="9zgFtrAu__IKfE8OlP4N-137" value="卖出前检查：有无正在同步的订单、订单状态，机器人状态、是否已经卖出、余额检查、是否到达设置卖出条件" style="rounded=0;whiteSpace=wrap;html=1;" vertex="1" parent="9zgFtrAu__IKfE8OlP4N-4">
          <mxGeometry x="1430" y="105" width="260" height="60" as="geometry" />
        </mxCell>
        <mxCell id="9zgFtrAu__IKfE8OlP4N-139" value="" style="endArrow=classic;html=1;entryX=0.5;entryY=0;entryDx=0;entryDy=0;exitX=0.5;exitY=1;exitDx=0;exitDy=0;" edge="1" parent="9zgFtrAu__IKfE8OlP4N-4" source="9zgFtrAu__IKfE8OlP4N-137" target="9zgFtrAu__IKfE8OlP4N-134">
          <mxGeometry width="50" height="50" relative="1" as="geometry">
            <mxPoint x="1319.58" y="190" as="sourcePoint" />
            <mxPoint x="1319.58" y="240" as="targetPoint" />
          </mxGeometry>
        </mxCell>
        <mxCell id="9zgFtrAu__IKfE8OlP4N-144" value="买入前检查：有无正在同步的订单、订单状态，机器人状态、是否已经可以补仓、补仓次数、是重复补仓、余额检查、是否到达设置卖出条件" style="rounded=0;whiteSpace=wrap;html=1;" vertex="1" parent="9zgFtrAu__IKfE8OlP4N-4">
          <mxGeometry x="1720" y="105" width="260" height="60" as="geometry" />
        </mxCell>
        <mxCell id="9zgFtrAu__IKfE8OlP4N-136" value="&lt;font style=&quot;font-size: 11px&quot;&gt;BuyOrderJob:queue&lt;/font&gt;" style="rounded=0;whiteSpace=wrap;html=1;" vertex="1" parent="9zgFtrAu__IKfE8OlP4N-4">
          <mxGeometry x="1790" y="20" width="120" height="30" as="geometry" />
        </mxCell>
        <mxCell id="9zgFtrAu__IKfE8OlP4N-146" value="" style="endArrow=classic;html=1;entryX=0.5;entryY=0;entryDx=0;entryDy=0;exitX=0.5;exitY=1;exitDx=0;exitDy=0;" edge="1" parent="9zgFtrAu__IKfE8OlP4N-4" source="9zgFtrAu__IKfE8OlP4N-144" target="9zgFtrAu__IKfE8OlP4N-135">
          <mxGeometry width="50" height="50" relative="1" as="geometry">
            <mxPoint x="1570" y="175" as="sourcePoint" />
            <mxPoint x="1570" y="230" as="targetPoint" />
          </mxGeometry>
        </mxCell>
        <mxCell id="9zgFtrAu__IKfE8OlP4N-5" value="mq" style="swimlane;html=1;startSize=20;horizontal=0;" vertex="1" parent="9zgFtrAu__IKfE8OlP4N-2">
          <mxGeometry y="570" width="2090" height="260" as="geometry" />
        </mxCell>
        <mxCell id="9zgFtrAu__IKfE8OlP4N-33" value="RobotJob" style="rounded=0;whiteSpace=wrap;html=1;" vertex="1" parent="9zgFtrAu__IKfE8OlP4N-5">
          <mxGeometry x="100" y="47.5" width="120" height="25" as="geometry" />
        </mxCell>
        <mxCell id="9zgFtrAu__IKfE8OlP4N-64" value="&lt;font style=&quot;font-size: 11px&quot;&gt;SyncHuobiOrderJob&lt;/font&gt;" style="rounded=0;whiteSpace=wrap;html=1;" vertex="1" parent="9zgFtrAu__IKfE8OlP4N-5">
          <mxGeometry x="290" y="42.5" width="120" height="30" as="geometry" />
        </mxCell>
        <mxCell id="9zgFtrAu__IKfE8OlP4N-108" value="&lt;font style=&quot;font-size: 11px&quot;&gt;UpdateOrderHighPriceJob&lt;/font&gt;" style="rounded=0;whiteSpace=wrap;html=1;" vertex="1" parent="9zgFtrAu__IKfE8OlP4N-5">
          <mxGeometry x="650" y="17.5" width="120" height="30" as="geometry" />
        </mxCell>
        <mxCell id="9zgFtrAu__IKfE8OlP4N-109" value="&lt;font style=&quot;font-size: 11px&quot;&gt;CreateBuyOrderJob&lt;/font&gt;" style="rounded=0;whiteSpace=wrap;html=1;" vertex="1" parent="9zgFtrAu__IKfE8OlP4N-5">
          <mxGeometry x="650" y="100" width="120" height="30" as="geometry" />
        </mxCell>
        <mxCell id="9zgFtrAu__IKfE8OlP4N-110" value="&lt;font style=&quot;font-size: 11px&quot;&gt;UpdateOrderLowPriceJob&lt;/font&gt;" style="rounded=0;whiteSpace=wrap;html=1;" vertex="1" parent="9zgFtrAu__IKfE8OlP4N-5">
          <mxGeometry x="920" y="12.5" width="120" height="30" as="geometry" />
        </mxCell>
        <mxCell id="9zgFtrAu__IKfE8OlP4N-112" value="&lt;font style=&quot;font-size: 11px&quot;&gt;CreateSellOrderJob&lt;/font&gt;" style="rounded=0;whiteSpace=wrap;html=1;" vertex="1" parent="9zgFtrAu__IKfE8OlP4N-5">
          <mxGeometry x="920" y="60" width="120" height="30" as="geometry" />
        </mxCell>
        <mxCell id="9zgFtrAu__IKfE8OlP4N-120" value="&lt;font style=&quot;font-size: 11px&quot;&gt;SellOrderJob&lt;/font&gt;" style="rounded=0;whiteSpace=wrap;html=1;" vertex="1" parent="9zgFtrAu__IKfE8OlP4N-5">
          <mxGeometry x="1090" y="60" width="120" height="30" as="geometry" />
        </mxCell>
        <mxCell id="9zgFtrAu__IKfE8OlP4N-126" value="&lt;font style=&quot;font-size: 11px&quot;&gt;BuyOrderJob&lt;/font&gt;" style="rounded=0;whiteSpace=wrap;html=1;" vertex="1" parent="9zgFtrAu__IKfE8OlP4N-5">
          <mxGeometry x="1250" y="60" width="120" height="30" as="geometry" />
        </mxCell>
        <mxCell id="9zgFtrAu__IKfE8OlP4N-34" value="" style="endArrow=classic;html=1;exitX=0.5;exitY=1;exitDx=0;exitDy=0;entryX=0.5;entryY=0;entryDx=0;entryDy=0;" edge="1" parent="9zgFtrAu__IKfE8OlP4N-2" source="9zgFtrAu__IKfE8OlP4N-26" target="9zgFtrAu__IKfE8OlP4N-33">
          <mxGeometry width="50" height="50" relative="1" as="geometry">
            <mxPoint x="280" y="370" as="sourcePoint" />
            <mxPoint x="160" y="410" as="targetPoint" />
          </mxGeometry>
        </mxCell>
        <mxCell id="9zgFtrAu__IKfE8OlP4N-36" value="" style="endArrow=classic;html=1;exitX=1;exitY=0.5;exitDx=0;exitDy=0;entryX=0;entryY=0.5;entryDx=0;entryDy=0;" edge="1" parent="9zgFtrAu__IKfE8OlP4N-2" source="9zgFtrAu__IKfE8OlP4N-33" target="9zgFtrAu__IKfE8OlP4N-35">
          <mxGeometry width="50" height="50" relative="1" as="geometry">
            <mxPoint x="280" y="450" as="sourcePoint" />
            <mxPoint x="280" y="300" as="targetPoint" />
            <Array as="points">
              <mxPoint x="270" y="630" />
              <mxPoint x="270" y="300" />
            </Array>
          </mxGeometry>
        </mxCell>
        <mxCell id="9zgFtrAu__IKfE8OlP4N-68" value="" style="edgeStyle=orthogonalEdgeStyle;rounded=0;orthogonalLoop=1;jettySize=auto;html=1;" edge="1" parent="9zgFtrAu__IKfE8OlP4N-2" source="9zgFtrAu__IKfE8OlP4N-61">
          <mxGeometry relative="1" as="geometry">
            <mxPoint x="350" y="610" as="targetPoint" />
          </mxGeometry>
        </mxCell>
        <mxCell id="9zgFtrAu__IKfE8OlP4N-113" value="" style="endArrow=classic;html=1;exitX=0;exitY=0.5;exitDx=0;exitDy=0;entryX=0.5;entryY=0;entryDx=0;entryDy=0;" edge="1" parent="9zgFtrAu__IKfE8OlP4N-2" source="9zgFtrAu__IKfE8OlP4N-103" target="9zgFtrAu__IKfE8OlP4N-108">
          <mxGeometry width="50" height="50" relative="1" as="geometry">
            <mxPoint x="800" y="590" as="sourcePoint" />
            <mxPoint x="850" y="540" as="targetPoint" />
            <Array as="points">
              <mxPoint x="710" y="490" />
            </Array>
          </mxGeometry>
        </mxCell>
        <mxCell id="9zgFtrAu__IKfE8OlP4N-114" value="" style="endArrow=classic;html=1;entryX=0.5;entryY=0;entryDx=0;entryDy=0;exitX=1;exitY=0.5;exitDx=0;exitDy=0;" edge="1" parent="9zgFtrAu__IKfE8OlP4N-2" source="9zgFtrAu__IKfE8OlP4N-103" target="9zgFtrAu__IKfE8OlP4N-110">
          <mxGeometry width="50" height="50" relative="1" as="geometry">
            <mxPoint x="980" y="490" as="sourcePoint" />
            <mxPoint x="850" y="540" as="targetPoint" />
            <Array as="points">
              <mxPoint x="980" y="490" />
            </Array>
          </mxGeometry>
        </mxCell>
        <mxCell id="9zgFtrAu__IKfE8OlP4N-115" value="" style="endArrow=classic;html=1;entryX=1;entryY=0.5;entryDx=0;entryDy=0;exitX=0.5;exitY=1;exitDx=0;exitDy=0;" edge="1" parent="9zgFtrAu__IKfE8OlP4N-2" source="9zgFtrAu__IKfE8OlP4N-103" target="9zgFtrAu__IKfE8OlP4N-109">
          <mxGeometry width="50" height="50" relative="1" as="geometry">
            <mxPoint x="800" y="590" as="sourcePoint" />
            <mxPoint x="850" y="540" as="targetPoint" />
            <Array as="points">
              <mxPoint x="850" y="685" />
            </Array>
          </mxGeometry>
        </mxCell>
        <mxCell id="9zgFtrAu__IKfE8OlP4N-122" value="" style="endArrow=classic;html=1;entryX=0.5;entryY=0;entryDx=0;entryDy=0;exitX=0.5;exitY=1;exitDx=0;exitDy=0;" edge="1" parent="9zgFtrAu__IKfE8OlP4N-2" source="9zgFtrAu__IKfE8OlP4N-119" target="9zgFtrAu__IKfE8OlP4N-120">
          <mxGeometry width="50" height="50" relative="1" as="geometry">
            <mxPoint x="830" y="620" as="sourcePoint" />
            <mxPoint x="880" y="570" as="targetPoint" />
          </mxGeometry>
        </mxCell>
        <mxCell id="9zgFtrAu__IKfE8OlP4N-130" value="" style="endArrow=classic;html=1;entryX=0;entryY=0.5;entryDx=0;entryDy=0;exitX=1;exitY=0.5;exitDx=0;exitDy=0;" edge="1" parent="9zgFtrAu__IKfE8OlP4N-2" source="9zgFtrAu__IKfE8OlP4N-112" target="9zgFtrAu__IKfE8OlP4N-118">
          <mxGeometry width="50" height="50" relative="1" as="geometry">
            <mxPoint x="980" y="630" as="sourcePoint" />
            <mxPoint x="1030" y="580" as="targetPoint" />
            <Array as="points">
              <mxPoint x="1070" y="645" />
              <mxPoint x="1070" y="435" />
            </Array>
          </mxGeometry>
        </mxCell>
        <mxCell id="9zgFtrAu__IKfE8OlP4N-131" value="" style="endArrow=classic;html=1;exitX=0.5;exitY=1;exitDx=0;exitDy=0;entryX=0.5;entryY=0;entryDx=0;entryDy=0;" edge="1" parent="9zgFtrAu__IKfE8OlP4N-2" source="9zgFtrAu__IKfE8OlP4N-109" target="9zgFtrAu__IKfE8OlP4N-124">
          <mxGeometry width="50" height="50" relative="1" as="geometry">
            <mxPoint x="980" y="630" as="sourcePoint" />
            <mxPoint x="1340" y="400" as="targetPoint" />
            <Array as="points">
              <mxPoint x="710" y="740" />
              <mxPoint x="1060" y="740" />
              <mxPoint x="1060" y="400" />
              <mxPoint x="1310" y="400" />
            </Array>
          </mxGeometry>
        </mxCell>
        <mxCell id="9zgFtrAu__IKfE8OlP4N-95" value="event" style="swimlane;html=1;startSize=20;horizontal=0;" vertex="1" parent="1">
          <mxGeometry x="10" y="930" width="2090" height="210" as="geometry" />
        </mxCell>
        <mxCell id="9zgFtrAu__IKfE8OlP4N-99" value="UpdateRedisOrderPrice 根据策略计算止盈价格，跌幅，补仓价格更新至redis.（更新订单对应的涨幅。计算平仓＆补仓价格）" style="rounded=0;whiteSpace=wrap;html=1;" vertex="1" parent="9zgFtrAu__IKfE8OlP4N-95">
          <mxGeometry x="300" y="80" width="1710" height="60" as="geometry" />
        </mxCell>
        <mxCell id="9zgFtrAu__IKfE8OlP4N-94" value="" style="endArrow=classic;html=1;exitX=0.5;exitY=1;exitDx=0;exitDy=0;entryX=0.146;entryY=-0.044;entryDx=0;entryDy=0;entryPerimeter=0;" edge="1" parent="1" source="9zgFtrAu__IKfE8OlP4N-77" target="9zgFtrAu__IKfE8OlP4N-99">
          <mxGeometry width="50" height="50" relative="1" as="geometry">
            <mxPoint x="690" y="820" as="sourcePoint" />
            <mxPoint x="550.4109589041097" y="970" as="targetPoint" />
          </mxGeometry>
        </mxCell>
        <mxCell id="9zgFtrAu__IKfE8OlP4N-116" value="" style="endArrow=classic;html=1;entryX=0;entryY=0.5;entryDx=0;entryDy=0;" edge="1" parent="1" target="9zgFtrAu__IKfE8OlP4N-112">
          <mxGeometry width="50" height="50" relative="1" as="geometry">
            <mxPoint x="860" y="620" as="sourcePoint" />
            <mxPoint x="900" y="750" as="targetPoint" />
            <Array as="points">
              <mxPoint x="860" y="745" />
            </Array>
          </mxGeometry>
        </mxCell>
        <mxCell id="9zgFtrAu__IKfE8OlP4N-127" value="" style="endArrow=classic;html=1;entryX=0.5;entryY=0;entryDx=0;entryDy=0;exitX=0.5;exitY=1;exitDx=0;exitDy=0;" edge="1" parent="1">
          <mxGeometry width="50" height="50" relative="1" as="geometry">
            <mxPoint x="1320" y="660" as="sourcePoint" />
            <mxPoint x="1320" y="730" as="targetPoint" />
          </mxGeometry>
        </mxCell>
        <mxCell id="9zgFtrAu__IKfE8OlP4N-138" value="" style="endArrow=classic;html=1;exitX=0.5;exitY=1;exitDx=0;exitDy=0;" edge="1" parent="1" source="9zgFtrAu__IKfE8OlP4N-132">
          <mxGeometry width="50" height="50" relative="1" as="geometry">
            <mxPoint x="1329.58" y="560" as="sourcePoint" />
            <mxPoint x="1570" y="470" as="targetPoint" />
          </mxGeometry>
        </mxCell>
        <mxCell id="9zgFtrAu__IKfE8OlP4N-142" value="" style="endArrow=classic;html=1;exitX=0.5;exitY=1;exitDx=0;exitDy=0;entryX=0.737;entryY=-0.078;entryDx=0;entryDy=0;entryPerimeter=0;" edge="1" parent="1" source="9zgFtrAu__IKfE8OlP4N-134" target="9zgFtrAu__IKfE8OlP4N-99">
          <mxGeometry width="50" height="50" relative="1" as="geometry">
            <mxPoint x="1570" y="700" as="sourcePoint" />
            <mxPoint x="1570.0000000000005" y="970" as="targetPoint" />
          </mxGeometry>
        </mxCell>
        <mxCell id="9zgFtrAu__IKfE8OlP4N-145" value="" style="endArrow=classic;html=1;exitX=0.5;exitY=1;exitDx=0;exitDy=0;" edge="1" parent="1" source="9zgFtrAu__IKfE8OlP4N-136">
          <mxGeometry width="50" height="50" relative="1" as="geometry">
            <mxPoint x="1580" y="440" as="sourcePoint" />
            <mxPoint x="1860" y="480" as="targetPoint" />
          </mxGeometry>
        </mxCell>
        <mxCell id="9zgFtrAu__IKfE8OlP4N-149" value="listen" style="swimlane;html=1;startSize=20;horizontal=0;" vertex="1" parent="1">
          <mxGeometry x="10" y="1140" width="2090" height="170" as="geometry" />
        </mxCell>
        <mxCell id="9zgFtrAu__IKfE8OlP4N-156" value="" style="endArrow=classic;html=1;exitX=0.5;exitY=1;exitDx=0;exitDy=0;entryX=0.907;entryY=-0.061;entryDx=0;entryDy=0;entryPerimeter=0;" edge="1" parent="1" target="9zgFtrAu__IKfE8OlP4N-99">
          <mxGeometry width="50" height="50" relative="1" as="geometry">
            <mxPoint x="1860.0000000000005" y="640" as="sourcePoint" />
            <mxPoint x="1860.0000000000005" y="960" as="targetPoint" />
          </mxGeometry>
        </mxCell>
      </root>
    </mxGraphModel>
  </diagram>
</mxfile>
